<svg xmlns="http://www.w3.org/2000/svg" viewBox="0 0 600 700"><defs><linearGradient id="g" x1="0" y1="0" x2="1" y2="1"><stop stop-color="#d9f3ff"/><stop offset="1" stop-color="#a7dfff"/></linearGradient></defs><rect width="600" height="700" rx="48" fill="url(#g)"/><rect x="42" y="30" width="516" height="92" rx="34" fill="#0b91dc"/><text x="300" y="90" text-anchor="middle" font-family="Arial,sans-serif" font-size="56" font-weight="900" fill="white">KG World</text><rect x="72" y="155" width="456" height="390" rx="38" fill="#f8fdff"/><path d="M115 280h370l-42-85H157z" fill="#ffd36a"/><rect x="125" y="270" width="350" height="220" rx="18" fill="#b9e7ff"/><rect x="150" y="300" width="90" height="70" rx="15" fill="#fff"/><rect x="255" y="300" width="90" height="70" rx="15" fill="#fff"/><rect x="360" y="300" width="90" height="70" rx="15" fill="#fff"/><text x="195" y="344" text-anchor="middle" font-family="Arial,sans-serif" font-size="20" font-weight="800" fill="#155b96">READ</text><text x="300" y="344" text-anchor="middle" font-family="Arial,sans-serif" font-size="20" font-weight="800" fill="#155b96">MATH</text><text x="405" y="344" text-anchor="middle" font-family="Arial,sans-serif" font-size="20" font-weight="800" fill="#155b96">SCI</text><rect x="150" y="390" width="90" height="70" rx="15" fill="#fff"/><rect x="255" y="390" width="90" height="70" rx="15" fill="#fff"/><rect x="360" y="390" width="90" height="70" rx="15" fill="#fff"/><text x="195" y="434" text-anchor="middle" font-family="Arial,sans-serif" font-size="18" font-weight="800" fill="#155b96">WORDS</text><text x="300" y="434" text-anchor="middle" font-family="Arial,sans-serif" font-size="18" font-weight="800" fill="#155b96">PUZZLES</text><text x="405" y="434" text-anchor="middle" font-family="Arial,sans-serif" font-size="18" font-weight="800" fill="#155b96">PHONICS</text><circle cx="105" cy="205" r="44" fill="#ff8b35"/><circle cx="92" cy="197" r="7"/><circle cx="118" cy="197" r="7"/><path d="M94 217q12 12 24 0" fill="none" stroke="#333" stroke-width="6"/><rect x="120" y="600" width="360" height="52" rx="26" fill="#057aa8"/><text x="300" y="635" text-anchor="middle" font-family="Arial,sans-serif" font-size="23" font-weight="800" fill="white">Separate Curriculum</text></svg>