<svg xmlns="http://www.w3.org/2000/svg" viewBox="0 0 600 700"><defs><linearGradient id="g" x1="0" y1="0" x2="1" y2="1"><stop stop-color="#ffe4f2"/><stop offset="1" stop-color="#ffb8dc"/></linearGradient></defs><rect width="600" height="700" rx="48" fill="url(#g)"/><rect x="42" y="30" width="516" height="92" rx="34" fill="#d51a8a"/><text x="300" y="90" text-anchor="middle" font-family="Arial,sans-serif" font-size="54" font-weight="900" fill="white">Nursery</text><circle cx="300" cy="215" r="70" fill="#fff"/><path d="M250 175l-32-42 58 24M350 175l32-42-58 24" fill="#fff" stroke="#e99abf" stroke-width="8"/><circle cx="278" cy="210" r="9"/><circle cx="322" cy="210" r="9"/><path d="M280 240q20 20 40 0" fill="none" stroke="#333" stroke-width="8" stroke-linecap="round"/><rect x="72" y="292" width="456" height="250" rx="38" fill="#fff"/><g font-family="Arial,sans-serif" font-weight="900" font-size="24" text-anchor="middle"><rect x="95" y="318" width="132" height="92" rx="22" fill="#fff2b2"/><text x="161" y="374" fill="#b51a72">ABC Garden</text><rect x="234" y="318" width="132" height="92" rx="22" fill="#d8f2ff"/><text x="300" y="374" fill="#1765a8">Counting</text><rect x="373" y="318" width="132" height="92" rx="22" fill="#e4ffd4"/><text x="439" y="374" fill="#32811f">Colors</text><rect x="95" y="430" width="132" height="92" rx="22" fill="#eadcff"/><text x="161" y="486" fill="#7040aa">Shapes</text><rect x="234" y="430" width="132" height="92" rx="22" fill="#ffe2d2"/><text x="300" y="486" fill="#c34d21">Animals</text><rect x="373" y="430" width="132" height="92" rx="22" fill="#dff5ff"/><text x="439" y="486" fill="#1765a8">Music</text></g><rect x="120" y="600" width="360" height="52" rx="26" fill="#c91584"/><text x="300" y="635" text-anchor="middle" font-family="Arial,sans-serif" font-size="23" font-weight="800" fill="white">Separate Curriculum</text></svg>